<svg width="841" height="535" viewBox="0 0 841 535" fill="none" xmlns="http://www.w3.org/2000/svg">
<path d="M655 458.757C655 458.757 648 460.257 645 457.757C642 455.257 644 450.757 644 450.757C654 432.757 664.5 429.757 663 427.757C661 425.257 650.609 442.757 636 440.257C634.5 440.257 627 436.757 633 432.757C645.5 428.257 644 427.757 653.5 421.257C663 414.757 673.969 412.782 684.5 411.257C691.644 410.053 693.763 408.715 694.5 405.257C684.96 340.285 690 285.25 709 249.757C691.5 303.757 695 392.757 701 405.757C701 405.757 746.705 385.855 774.5 364.757C785.065 358.93 790.366 357.848 798.5 362.757C807.337 369.479 811.361 374.33 813 389.257C811.132 414.427 786.554 421.848 727.5 430.757C699 436.257 698.5 467.757 669.5 465.757L666 533.257H624L619.5 507.257C582.977 501.479 561.946 499.672 523 499.757C523 499.757 474.072 499.757 473 507.257C471.929 514.757 523 515.757 523 515.757C523 515.757 585.21 515.757 588 486C590.79 456.243 520 457.757 520 457.757C520 457.757 450 459 451.5 475C453 491 595.5 489.757 596.5 473.757C597.5 457.757 545.5 452.257 526 452.257C506.5 452.257 440 454.757 442.5 473.257C445 491.757 468.5 507.257 468.5 507.257H417L411.5 533.257H0M655 458.757C655 458.757 656.5 455.5 658.5 453.5C660.5 451.5 662.5 449.757 664 451.257C665.5 452.757 659.5 458 655 458.757ZM655 458.757C654.626 459.639 655 461.257 656 462.257C663 466.757 673 459.5 673.5 459C674 458.5 675.5 457.257 674 455.757C672.5 454.257 671 456 670.5 456.5C670 457 664.5 467.257 658.5 470.257C630.5 481.257 575 477.5 559 465.757C548.507 441.457 545.131 430.587 552.5 425.257C549 436.5 554.5 441.5 589 445.5C603.5 446.5 635.5 447.743 642.5 443.5C642.5 443.5 561.043 444.255 559 430.5C556.5 417.5 593.5 414.757 600 415.757C606.5 416.757 605.5 422.257 605.5 422.257C605 428.777 597 426.257 594 422.257C591.894 418.597 584.7 404.257 591 397.257C595.5 392.257 606.5 389.257 611.5 393.757C616.5 398.257 612.5 406.514 611.5 407.757C610.5 409 608 412.757 606.5 411.257C605 409.757 606 406.5 608 404.5C610 402.5 613.62 400.381 616.5 401.757C619.38 403.133 618.965 417.734 615 420.257C611.035 422.78 608.5 417.257 608.5 415.757C608.5 414.257 612 413.257 613.5 413.257C623.444 411.257 654.5 413.757 655 415.757C655.5 417.757 654 418.257 652 418.257C641.5 405.757 662 385.757 665 354.257C662 347.757 629 341.757 628 357.757C627 373.757 655 370.257 655 370.257C644.89 357.807 630.763 360.257 626 366.257C615.571 379.394 606.5 385.757 581 392.757C572.095 396.116 570.584 398.427 571 404.257C555 410.757 484.932 419.375 427 426.757C427 426.757 450.5 440.257 495.5 432.757C540.5 425.257 572.5 412.257 572.5 412.257C578.94 421.44 582.25 422.885 589 426.257C603.5 432.257 614.5 428.257 622 416.757C623.875 413.882 624.089 407.454 622 399.257C643.849 398.689 652.567 395.837 660 384.757C672.142 364.309 669.5 355.257 665 348.257C660.5 341.257 633 344.257 633 344.257C633 344.257 632.5 335 644 332.5C648 331.63 651.5 332.5 650.5 335C649.5 337.5 635.5 339.5 635 329.757C634.5 320.014 642.5 303.757 642.5 303.757C650.5 279.757 643.5 277.257 648 258.757C652.5 240.257 666 233.257 666 233.257C666 233.257 672 229.757 675 230.757C678 231.757 667 263.257 662 277.257C657 291.257 658.5 320.257 658.5 320.257C658.5 320.257 658.5 324.257 657 324.757C655.5 325.257 654.5 320.257 654 317.257C652 293.757 662 220.257 697 216.757C701.5 216.757 707 229.757 705.5 234.257C703.5 240.257 696.5 242.007 695 241.257C693.5 240.507 693.182 238.257 695 235.257C705 218.757 698 209.5 698 209.5C698 209.5 731.5 202 738.5 190C741.5 178.5 739.5 173.5 739.5 173.5C739.5 173.5 738.5 174.757 735.5 186.757C724 200.757 691.5 205.757 691.5 205.757C688.5 205.757 681.339 199.757 671.5 185.257C661.661 170.757 670 157.757 670 157.757C670 157.757 658 140.757 667 132.043C676 123.329 708 111.257 738.5 112.257C738.5 112.257 748.5 112.757 748.5 114.757C748.5 116.757 737 121.757 709 127.757C681 133.757 659.21 134.008 660 132.757C660 132.757 636 34.7571 641 17.2571C688 -6.74936 731 -0.248466 732 11.7571C741.5 89.25 733.303 78.4649 748.5 127.757C751 135.257 761 136.75 762.5 145.757C763.5 150.75 755.5 160.25 755.5 160.25C755.5 160.25 758.5 141.25 751 139.25C743.5 137.25 739 152.764 737 155.257C735 157.75 731.5 159.764 730 157.757C728.5 155.75 730 148.75 730 145.757C730 142.764 725.25 139.25 724.5 134.75C723.75 130.25 727 127.764 731 125.757C735 123.75 739.5 122.658 747.5 132.757C757 144.75 751 162.764 750 164.257C749 165.75 747 170.25 744.5 170.257C742 170.264 740.5 164.257 741.5 160.757C742.5 157.257 751 159.25 752.5 175.75C755.5 192.75 721.5 211.25 709 218.757C735.226 209.605 754 196 757 183.5C765.5 191 766.5 203.5 744.5 217.757C743 216.757 752 205.5 759.5 199.75C767 194 771 198.264 773.5 201.757C782 211.75 798.5 217.25 803 218.75C818.5 225.25 824.5 238.764 828.5 243.757C832.5 248.75 848.5 272.25 833.5 303.757C829.5 323.75 840 335.757 840 362.757C839 367.25 840 369.264 836 370.757C832 372.25 819.5 354.257 811 348.757C802.5 343.257 800 341.25 788.5 344.257C788.5 344.257 779.969 346.75 779 349.25C778.031 351.75 785.5 352.75 786.5 351.257C794.5 343.5 767.5 332.25 765 326.757C760.5 318.25 764.5 304.75 770.5 294.257C776.5 283.764 782 256.743 777.5 256.75C768.5 256.25 767.5 344.257 777 354.257C781.275 358.757 801.5 354.613 811 359.75C841.5 376.243 832.5 394.257 827 398.757C821.5 403.257 819.5 405.25 817.5 402.75C815.5 400.25 814.5 389.257 815.5 384.757C816.5 380.257 819.5 379.25 823 384.757C828.715 393.75 827 431.764 798.5 443.757C770 455.75 718.5 444.75 721 439.25C723.5 433.75 740 443.25 761.5 442.25C783 441.25 800.877 439.412 804.5 443.757C812 452.75 794.646 475.264 789.5 493.257C784.354 511.25 791 525.45 783.5 527.75C776 530.05 758 515.75 776 481.257C794 446.764 805 442.75 814 448.75C823 454.75 823 502.75 811 533.257" stroke="#242424" stroke-opacity="0.5" stroke-width="2"/>
</svg>
