<svg width="159" height="47" viewBox="0 0 159 47" fill="none" xmlns="http://www.w3.org/2000/svg">
    <g clip-path="url(#clip0_1001_6583)">
        <path d="M157.945 41.4507C157.945 43.9375 155.925 45.9518 153.427 45.9518H5.57266C3.0756 45.9518 1.04883 43.9375 1.04883 41.4507V5.55581C1.04883 3.07021 3.0757 1.04883 5.57266 1.04883H153.426C155.925 1.04883 157.944 3.07021 157.944 5.55581L157.945 41.4507Z" fill="white"/>
        <path d="M153.427 46.998H5.57272C2.5006 46.998 0 44.51 0 41.4497V5.55606C0 2.49343 2.5006 0.00195312 5.57272 0.00195312H153.426C156.495 0.00195312 158.999 2.49343 158.999 5.55606V41.4497C159.001 44.51 156.497 46.998 153.427 46.998Z" fill="white"/>
        <path d="M157.945 41.4507C157.945 43.9375 155.925 45.9518 153.427 45.9518C95.6864 45.9518 63.3135 45.9518 5.57266 45.9518C3.0756 45.9518 1.04883 43.9375 1.04883 41.4507V5.55581C1.04883 3.07021 3.0757 1.04883 5.57266 1.04883H153.426C155.925 1.04883 157.944 3.07021 157.944 5.55581L157.945 41.4507Z" fill="white"/>
        <path d="M35.5032 23.2529C35.469 19.4651 38.613 17.6224 38.7568 17.5366C36.9762 14.9475 34.2164 14.5938 33.2466 14.5656C30.9287 14.3223 28.6803 15.9488 27.4995 15.9488C26.2951 15.9488 24.4769 14.5891 22.5171 14.6291C19.9953 14.6678 17.6363 16.1239 16.3423 18.3851C13.6721 22.9955 15.6635 29.7706 18.2219 33.4973C19.5016 35.3236 20.9971 37.3602 22.9543 37.2885C24.8693 37.211 25.5846 36.0722 27.8954 36.0722C30.185 36.0722 30.8568 37.2885 32.8529 37.2427C34.9082 37.211 36.202 35.4094 37.4371 33.5678C38.916 31.4771 39.5098 29.4157 39.5335 29.31C39.4862 29.2935 35.5432 27.7916 35.5032 23.2529ZM31.7323 12.1141C32.7621 10.8296 33.4669 9.08201 33.2713 7.30859C31.7805 7.37441 29.9163 8.33691 28.8427 9.59323C27.8929 10.7003 27.0444 12.5148 27.2636 14.2213C28.9382 14.3458 30.6575 13.3786 31.7323 12.1141Z" fill="#242424"/>
        <path d="M63.2395 37.0255H60.5633L59.0974 32.4315H54.0018L52.6054 37.0255H50L55.0495 21.3856H58.1676L63.2395 37.0255ZM58.6556 30.5042L57.3298 26.4203C57.1896 26.0031 56.9256 25.0206 56.539 23.474H56.492C56.3364 24.1392 56.0878 25.1217 55.7472 26.4203L54.4439 30.5042H58.6556ZM76.1998 31.2481C76.1998 33.1661 75.6777 34.6821 74.6324 35.7951C73.6968 36.7858 72.5337 37.2806 71.1466 37.2806C69.6489 37.2806 68.5718 36.7481 67.9178 35.6811V41.5984H65.4054V29.4547C65.4054 28.25 65.3737 27.0149 65.3124 25.748H67.5219L67.6622 27.5356H67.7092C68.5471 26.1888 69.8186 25.5153 71.5249 25.5153C72.8589 25.5153 73.9725 26.0406 74.8634 27.0924C75.7531 28.1467 76.1998 29.5311 76.1998 31.2481ZM73.6402 31.3398C73.6402 30.2421 73.3927 29.3372 72.8954 28.6238C72.3522 27.8823 71.6227 27.511 70.7083 27.511C70.0884 27.511 69.5251 27.7177 69.022 28.1255C68.5176 28.5369 68.1876 29.0739 68.0334 29.7391C67.9556 30.0494 67.9167 30.302 67.9167 30.5019V32.3834C67.9167 33.2025 68.1689 33.8948 68.6733 34.4613C69.1776 35.0254 69.8328 35.3085 70.6388 35.3085C71.5852 35.3085 72.3217 34.9431 72.8484 34.2179C73.3762 33.4904 73.6402 32.5314 73.6402 31.3398ZM89.2058 31.2481C89.2058 33.1661 88.6838 34.6821 87.6386 35.7951C86.7017 36.7858 85.5398 37.2806 84.1516 37.2806C82.6539 37.2806 81.5768 36.7481 80.9228 35.6811V41.5984H78.4104V29.4547C78.4104 28.25 78.3786 27.0149 78.3173 25.748H80.5268L80.6671 27.5356H80.7142C81.5509 26.1888 82.8224 25.5153 84.5298 25.5153C85.8626 25.5153 86.9762 26.0406 87.8695 27.0924C88.7581 28.1467 89.2058 29.5311 89.2058 31.2481ZM86.6451 31.3398C86.6451 30.2421 86.3966 29.3372 85.8992 28.6238C85.356 27.8823 84.6289 27.511 83.7144 27.511C83.0946 27.511 82.5313 27.7177 82.0258 28.1255C81.5214 28.5369 81.1927 29.0739 81.0383 29.7391C80.9617 30.0494 80.9204 30.302 80.9204 30.5019V32.3834C80.9204 33.2025 81.1738 33.8948 81.6758 34.4613C82.1801 35.0242 82.8353 35.3085 83.6437 35.3085C84.5911 35.3085 85.3276 34.9431 85.8533 34.2179C86.3812 33.4904 86.6451 32.5314 86.6451 31.3398ZM103.747 32.6384C103.747 33.9699 103.281 35.0523 102.354 35.8879C101.333 36.7999 99.9083 37.257 98.0817 37.257C96.3942 37.257 95.0414 36.9327 94.0208 36.2828L94.6018 34.1944C95.7036 34.8455 96.9138 35.1698 98.2313 35.1698C99.1788 35.1698 99.9153 34.9559 100.441 34.5317C100.967 34.1062 101.234 33.5374 101.234 32.8276C101.234 32.1919 101.014 31.6594 100.581 31.2259C100.146 30.7934 99.4274 30.3903 98.4176 30.0201C95.6718 28.9988 94.2978 27.5051 94.2978 25.5401C94.2978 24.2568 94.7833 23.2061 95.752 22.3847C96.7207 21.5644 98.0052 21.1543 99.6031 21.1543C101.03 21.1543 102.219 21.4023 103.163 21.897L102.533 23.9395C101.644 23.46 100.641 23.2202 99.5193 23.2202C98.6333 23.2202 97.9379 23.4377 97.4406 23.8701C97.0223 24.2568 96.8102 24.7282 96.8102 25.2875C96.8102 25.9046 97.0518 26.4169 97.5325 26.8189C97.9497 27.189 98.7109 27.5922 99.8116 28.0247C101.162 28.5676 102.154 29.1999 102.789 29.9262C103.429 30.6523 103.747 31.5584 103.747 32.6384ZM112.075 27.6284H109.306V33.1038C109.306 34.4964 109.794 35.191 110.772 35.191C111.221 35.191 111.593 35.1533 111.888 35.0746L111.957 36.9773C111.463 37.1619 110.811 37.2547 110.004 37.2547C109.011 37.2547 108.236 36.9526 107.676 36.3486C107.119 35.7445 106.839 34.7326 106.839 33.3083V27.6237H105.189V25.7433H106.839V23.6785L109.306 22.9357V25.7433H112.075V27.6284ZM124.545 31.2939C124.545 33.0273 124.048 34.4505 123.056 35.5635C122.018 36.7094 120.637 37.2805 118.915 37.2805C117.253 37.2805 115.932 36.7317 114.947 35.6352C113.962 34.5363 113.469 33.152 113.469 31.482C113.469 29.7343 113.978 28.303 114.993 27.19C116.01 26.0759 117.379 25.519 119.101 25.519C120.76 25.519 122.093 26.0689 123.102 27.1665C124.066 28.2313 124.545 29.6063 124.545 31.2939ZM121.941 31.3515C121.941 30.3184 121.717 29.4323 121.268 28.6907C120.741 27.7952 119.987 27.3475 119.01 27.3475C118.004 27.3475 117.232 27.7952 116.706 28.6907C116.256 29.4323 116.032 30.3337 116.032 31.3984C116.032 32.4327 116.256 33.3211 116.706 34.0604C117.25 34.9559 118.007 35.4037 118.989 35.4037C119.949 35.4037 120.703 34.9465 121.247 34.0381C121.709 33.2789 121.941 32.3869 121.941 31.3515ZM132.715 27.9516C132.467 27.9057 132.2 27.8822 131.923 27.8822C131.04 27.8822 130.356 28.2137 129.875 28.8811C129.458 29.4687 129.248 30.2115 129.248 31.1081V37.0254H126.736V29.2996C126.736 28.001 126.711 26.8163 126.663 25.7492H128.851L128.943 27.9068H129.013C129.279 27.1654 129.696 26.5671 130.269 26.1193C130.829 25.7163 131.433 25.5153 132.085 25.5153C132.317 25.5153 132.527 25.5317 132.713 25.5612L132.715 27.9516ZM143.952 30.8532C143.952 31.3022 143.922 31.6805 143.86 31.9897H136.322C136.351 33.1038 136.716 33.957 137.416 34.5446C138.051 35.0688 138.872 35.332 139.881 35.332C140.997 35.332 142.015 35.1557 142.931 34.7996L143.325 36.5378C142.255 37.0032 140.991 37.2347 139.534 37.2347C137.78 37.2347 136.404 36.7198 135.402 35.6928C134.403 34.6645 133.902 33.2824 133.902 31.5513C133.902 29.8518 134.367 28.4358 135.3 27.3064C136.275 26.1006 137.594 25.4976 139.253 25.4976C140.883 25.4976 142.117 26.1005 142.954 27.3064C143.618 28.2619 143.952 29.4465 143.952 30.8532ZM141.556 30.2033C141.573 29.4594 141.408 28.8189 141.068 28.2771C140.633 27.579 139.964 27.2312 139.067 27.2312C138.246 27.2312 137.576 27.5708 137.067 28.2525C136.649 28.7942 136.4 29.4453 136.324 30.201L141.556 30.2033Z" fill="#242424"/>
        <path d="M57.4443 15.7887H56.1279L55.4079 13.5311H52.9037L52.2167 15.7887H50.9358L53.4175 8.10153H54.9495L57.4443 15.7887ZM55.191 12.5838L54.5394 10.5765C54.471 10.3709 54.3449 9.89257 54.1505 9.12867H54.1269C54.0468 9.45891 53.9325 9.9384 53.7605 10.5765L53.1206 12.5838H55.191ZM63.6497 10.2463L61.5451 15.7887H60.3442L58.308 10.2463H59.6348L60.5846 13.1773C60.7449 13.6674 60.8816 14.1351 60.9841 14.5794H61.0183C61.1103 14.181 61.2469 13.7132 61.4178 13.1773L62.3558 10.2463H63.6497ZM68.13 15.7887L68.0381 15.1504H68.0038C67.6268 15.664 67.0776 15.9143 66.3801 15.9143C65.3854 15.9143 64.676 15.2186 64.676 14.2831C64.676 12.9151 65.865 12.2077 67.9237 12.2077V12.1054C67.9237 11.3756 67.5348 11.0101 66.7689 11.0101C66.2196 11.0101 65.7389 11.1476 65.3171 11.4214L65.066 10.6117C65.5809 10.292 66.2209 10.1322 66.9762 10.1322C68.428 10.1322 69.161 10.8961 69.161 12.4251V14.4664C69.161 15.0258 69.1845 15.4595 69.2411 15.7897L68.13 15.7887ZM67.958 13.0281C66.5852 13.0281 65.8993 13.3595 65.8993 14.1457C65.8993 14.7274 66.254 15.0118 66.7454 15.0118C67.3746 15.0118 67.958 14.5335 67.958 13.8836V13.0281ZM71.9116 9.33316C71.5003 9.33316 71.1798 9.0135 71.1798 8.59159C71.1798 8.16969 71.511 7.86178 71.9351 7.86178C72.3582 7.86178 72.7011 8.16969 72.6894 8.59159C72.6894 9.037 72.3701 9.33316 71.9116 9.33316ZM72.5526 15.7887H71.3176V10.2463H72.5526V15.7887ZM75.9818 15.7887H74.7468V7.70312H75.9818V15.7887ZM81.2305 15.7887L81.1385 15.1504H81.1044C80.7273 15.664 80.1781 15.9143 79.4805 15.9143C78.4859 15.9143 77.7765 15.2186 77.7765 14.2831C77.7765 12.9151 78.9655 12.2077 81.0241 12.2077V12.1054C81.0241 11.3756 80.6353 11.0101 79.8693 11.0101C79.3202 11.0101 78.8394 11.1476 78.4175 11.4214L78.1654 10.6105C78.6804 10.2909 79.3203 10.131 80.0756 10.131C81.5274 10.131 82.2603 10.8949 82.2603 12.4239V14.4653C82.2603 15.0247 82.2851 15.4583 82.3394 15.7886H81.2305V15.7887ZM81.0584 13.0281C79.6856 13.0281 78.9997 13.3595 78.9997 14.1457C78.9997 14.7274 79.3543 15.0118 79.8457 15.0118C80.475 15.0118 81.0584 14.5335 81.0584 13.8836V13.0281ZM87.264 15.9144C86.4757 15.9144 85.8935 15.583 85.5164 14.9331H85.4916L85.4209 15.7887H84.3686C84.4028 15.3444 84.4145 14.8414 84.4145 14.295V7.70312H85.6507V11.0572H85.6743C86.0407 10.4414 86.6336 10.1335 87.4466 10.1335C88.7853 10.1335 89.7233 11.2746 89.7233 12.9387C89.7233 14.6593 88.6816 15.9144 87.264 15.9144ZM87.0129 11.1007C86.3024 11.1007 85.652 11.7165 85.652 12.5721V13.5416C85.652 14.3055 86.2364 14.9331 86.9918 14.9331C87.9169 14.9331 88.4672 14.181 88.4672 12.9834C88.4659 11.8658 87.8932 11.1007 87.0129 11.1007ZM92.7836 15.7887H91.5499V7.70312H92.7836V15.7887ZM99.5066 13.3136H95.7993C95.8241 14.3631 96.5192 14.9554 97.5491 14.9554C98.0983 14.9554 98.6015 14.8638 99.0469 14.6934L99.239 15.5489C98.7134 15.7769 98.0959 15.8909 97.3759 15.8909C95.6366 15.8909 94.6078 14.7956 94.6078 13.0974C94.6078 11.398 95.6614 10.1206 97.2369 10.1206C98.6546 10.1206 99.5477 11.17 99.5477 12.7554C99.5525 12.9717 99.5419 13.1656 99.5066 13.3136ZM98.374 12.4358C98.374 11.5802 97.9391 10.9761 97.1497 10.9761C96.4402 10.9761 95.8817 11.5919 95.7992 12.4358H98.374ZM106.992 15.9144C105.368 15.9144 104.316 14.7051 104.316 13.0633C104.316 11.3522 105.39 10.1323 107.085 10.1323C108.684 10.1323 109.761 11.284 109.761 12.9728C109.761 14.7051 108.651 15.9144 106.992 15.9144ZM107.039 11.0325C106.147 11.0325 105.575 11.8646 105.575 13.0281C105.575 14.1692 106.159 15.0013 107.027 15.0013C107.896 15.0013 108.478 14.1116 108.478 13.0046C108.479 11.8763 107.907 11.0325 107.039 11.0325ZM116.4 15.7887H115.167V12.6062C115.167 11.626 114.789 11.1348 114.046 11.1348C113.314 11.1348 112.81 11.7623 112.81 12.4922V15.7887H111.576V11.8305C111.576 11.3404 111.563 10.8151 111.53 10.2451H112.616L112.674 11.1007H112.708C113.038 10.5084 113.715 10.1311 114.469 10.1311C115.634 10.1311 116.4 11.0208 116.4 12.4687V15.7887H116.4ZM124.481 11.17H123.122V13.8613C123.122 14.5465 123.361 14.8884 123.841 14.8884C124.059 14.8884 124.243 14.8649 124.39 14.8309L124.424 15.7663C124.184 15.8581 123.862 15.9038 123.465 15.9038C122.491 15.9038 121.911 15.3679 121.911 13.9647V11.17H121.1V10.2463H121.911V9.23092L123.122 8.86542V10.2451H124.481V11.17ZM131.021 15.7887H129.785V12.6297C129.785 11.6378 129.408 11.136 128.664 11.136C128.024 11.136 127.43 11.5696 127.43 12.4475V15.7887H126.194V7.70312H127.43V11.0325H127.454C127.843 10.4285 128.404 10.1311 129.124 10.1311C130.301 10.1311 131.021 11.0431 131.021 12.4922V15.7887ZM137.331 13.3136H133.625C133.649 14.3631 134.344 14.9554 135.374 14.9554C135.924 14.9554 136.426 14.8638 136.872 14.6934L137.065 15.5489C136.539 15.7769 135.921 15.8909 135.201 15.8909C133.462 15.8909 132.433 14.7956 132.433 13.0974C132.433 11.398 133.486 10.1206 135.062 10.1206C136.48 10.1206 137.373 11.17 137.373 12.7554C137.377 12.9717 137.365 13.1656 137.331 13.3136ZM136.199 12.4358C136.199 11.5802 135.765 10.9761 134.976 10.9761C134.265 10.9761 133.706 11.5919 133.625 12.4358H136.199Z" fill="#242424"/>
    </g>
    <defs>
        <clipPath id="clip0_1001_6583">
            <rect width="159" height="47" fill="white"/>
        </clipPath>
    </defs>
</svg>