<svg width="159" height="47" viewBox="0 0 159 47" fill="none" xmlns="http://www.w3.org/2000/svg">
<g clip-path="url(#clip0_1001_6593)">
<path d="M153.037 46.9947H5.96236C2.72674 46.9947 0.0793457 44.3515 0.0793457 41.1209V5.87779C0.0793457 2.64714 2.72668 0.00390625 5.96236 0.00390625H153.037C156.273 0.00390625 158.92 2.64714 158.92 5.87779V41.1209C158.92 44.3515 156.273 46.9947 153.037 46.9947Z" fill="white"/>
<path d="M153.037 0.00390625H5.96236C2.72674 0.00390625 0.0793457 2.64714 0.0793457 5.87779V41.1209C0.0793457 44.3515 2.72669 46.9947 5.96236 46.9947H153.037C156.273 46.9947 158.92 44.3515 158.92 41.1209V5.87779C158.921 2.64714 156.273 0.00390625 153.037 0.00390625M153.037 0.943693C155.762 0.943693 157.979 3.15747 157.979 5.87779V41.1209C157.979 43.8417 155.762 46.0554 153.037 46.0554H5.96236C3.23785 46.0554 1.02064 43.8416 1.02064 41.1209V5.87779C1.02064 3.15747 3.2378 0.943746 5.96236 0.943746H153.037" fill="white"/>
<path d="M55.8719 12.0385C55.8719 13.0227 55.58 13.8065 54.9954 14.3912C54.3312 15.0864 53.4657 15.4343 52.4017 15.4343C51.3828 15.4343 50.5164 15.0819 49.804 14.376C49.0903 13.6707 48.7341 12.7961 48.7341 11.7525C48.7341 10.7085 49.0903 9.83442 49.804 9.12852C50.5164 8.42326 51.3828 8.07031 52.4017 8.07031C52.9073 8.07031 53.3914 8.16904 53.851 8.36592C54.3105 8.56328 54.6792 8.82526 54.955 9.15334L54.3344 9.77328C53.8671 9.21574 53.2236 8.93719 52.4017 8.93719C51.6586 8.93719 51.0161 9.1979 50.4738 9.71964C49.9313 10.2419 49.6602 10.9192 49.6602 11.7525C49.6602 12.5859 49.9313 13.2632 50.4738 13.7855C51.0161 14.3072 51.6586 14.5679 52.4017 14.5679C53.1901 14.5679 53.8473 14.3058 54.3735 13.7809C54.7151 13.4389 54.9126 12.9636 54.9654 12.3532H52.4017V11.5066H55.8227C55.8557 11.6907 55.8718 11.8673 55.8718 12.0385" fill="#242424"/>
<path d="M55.8721 12.0388H55.7544C55.7534 13.0006 55.4721 13.7476 54.9123 14.3084L54.911 14.3094L54.9105 14.3103C54.2675 14.9816 53.441 15.3157 52.4018 15.3171C51.4101 15.3157 50.58 14.9779 49.8868 14.2933C49.1952 13.6072 48.8532 12.7697 48.8519 11.7528C48.8532 10.7355 49.1952 9.89843 49.8868 9.21286C50.58 8.52772 51.4101 8.1895 52.4018 8.18807C52.8923 8.18807 53.3593 8.28364 53.8046 8.47402C54.2504 8.66589 54.6026 8.91731 54.865 9.22944L54.9551 9.15362L54.8719 9.07058L54.2514 9.69094L54.3345 9.77357L54.4251 9.69838C53.936 9.11324 53.2495 8.81826 52.4019 8.82C51.6312 8.81905 50.9532 9.09402 50.3925 9.63556C49.8263 10.1788 49.5418 10.8942 49.5427 11.7528C49.5418 12.6115 49.8263 13.3268 50.3925 13.8701C50.9532 14.4117 51.6312 14.6866 52.4018 14.6856C53.2163 14.6871 53.9104 14.4112 54.4568 13.8642C54.8217 13.4989 55.0286 12.9928 55.0829 12.3636L55.0938 12.236H52.5195V11.6243H55.8228V11.5068L55.7069 11.5275C55.7391 11.7056 55.7543 11.8749 55.7543 12.0388H55.9897C55.9897 11.8602 55.9731 11.6767 55.9386 11.4858L55.9212 11.3894H52.2842V12.471H54.9656V12.3535L54.8484 12.3434C54.7965 12.9345 54.608 13.3797 54.2904 13.6982C53.7849 14.2011 53.1644 14.4493 52.4019 14.4507C51.6863 14.4497 51.0792 14.2038 50.5557 13.7013C50.0373 13.2006 49.7794 12.5614 49.7781 11.7528C49.7794 10.9442 50.0373 10.305 50.5557 9.80435C51.0792 9.30188 51.6863 9.0559 52.4019 9.05495C53.1975 9.05685 53.7983 9.3193 54.2446 9.84933L54.3273 9.94753L55.0383 9.23673L55.1146 9.16059L55.0451 9.07834C54.7561 8.73426 54.3709 8.46114 53.8975 8.2584C53.4232 8.05502 52.9227 7.95313 52.4019 7.95313C51.3559 7.95223 50.4532 8.31933 49.721 9.04581C48.9861 9.77087 48.6157 10.6823 48.6167 11.7528C48.6157 12.8229 48.9861 13.7348 49.7215 14.4603C50.4532 15.1863 51.3559 15.553 52.4019 15.552C53.4912 15.553 54.3948 15.1918 55.0806 14.4727L54.9955 14.3915L55.0787 14.4746C55.6881 13.8665 55.9905 13.0451 55.9897 12.0388H55.872M61.2954 9.09444H58.0804V11.3293H60.9797V12.1763H58.0804V14.4112H61.2954V15.2771H57.1741V8.22852H61.2954V9.09444Z" fill="#242424"/>
<path d="M61.2951 9.09277V8.9753H57.9625V11.4451H60.8617V12.0568L57.9624 12.0572V14.527H61.1774V15.158H57.2915V8.34432H61.1774V9.09277H61.2951V8.9753V9.09277H61.4127V8.10938H57.0562V15.3929H61.4127V14.2921H58.1978V12.2921H61.0971V11.2102H58.1978V9.21025H61.4127V9.09277H61.2951ZM65.1204 15.2755H64.2127V9.09272H62.2409V8.2268H67.0922V9.09272H65.1204V15.2754" fill="#242424"/>
<path d="M65.1207 15.2755V15.158H64.3306V8.9753H62.3589V8.34437H66.9747V8.9753H65.003V15.2755H65.1207V15.158V15.2755H65.2383V9.21025H67.2101V8.10938H62.1235V9.21019H64.0953V15.3929H65.2383V15.2754H65.1207M70.6025 15.2755V8.2268H71.5093V15.2754H70.6025" fill="#242424"/>
<path d="M70.6023 15.2755H70.7199V8.34432H71.3914V15.158H70.6023V15.2755H70.7199H70.6023V15.3929H71.6267V8.10938H70.4846V15.3929H70.6023V15.2755M75.5329 15.2755H74.6252V9.09272H72.6535V8.2268H77.5047V9.09272H75.5329V15.2754" fill="#242424"/>
<path d="M75.5329 15.2769V15.1594H74.7428V8.97668H72.7712V8.34575H77.387V8.97668H75.4153V15.2768H75.5329V15.1594V15.2768H75.6506V9.21163H77.6223V8.11075H72.5359V9.21157H74.5075V15.3943H75.6506V15.2768H75.5329M82.1817 13.7759C82.7042 14.304 83.3436 14.5678 84.0996 14.5678C84.8557 14.5678 85.4954 14.304 86.0171 13.7759C86.5401 13.2477 86.8022 12.5725 86.8022 11.7525C86.8022 10.9326 86.5401 10.2574 86.0171 9.72925C85.4954 9.20107 84.8557 8.93719 84.0996 8.93719C83.3436 8.93719 82.7042 9.20107 82.1817 9.72925C81.66 10.2574 81.3981 10.9325 81.3981 11.7525C81.3981 12.5725 81.66 13.2477 82.1817 13.7759ZM86.6881 14.3659C85.9941 15.0785 85.131 15.4343 84.0996 15.4343C83.0673 15.4343 82.2046 15.0785 81.512 14.3659C80.8175 13.6541 80.4719 12.7828 80.4719 11.7525C80.4719 10.7223 80.8175 9.85079 81.512 9.13913C82.2046 8.42638 83.0673 8.07031 84.0996 8.07031C85.1255 8.07031 85.9863 8.42828 86.6836 9.14373C87.3799 9.85913 87.7283 10.7287 87.7283 11.7525C87.7283 12.7828 87.3807 13.6541 86.6881 14.3659Z" fill="#242424"/>
<path d="M82.1819 13.7742L82.0982 13.8568C82.6401 14.4061 83.3162 14.6851 84.0998 14.6837C84.883 14.6851 85.56 14.4061 86.101 13.8568C86.6465 13.307 86.9209 12.5957 86.92 11.7509C86.9208 10.9061 86.6465 10.1948 86.101 9.64496C85.56 9.09566 84.883 8.81668 84.0998 8.81805C83.3162 8.81668 82.6401 9.09566 82.0982 9.64496C81.554 10.1948 81.2792 10.9061 81.2806 11.7509C81.2792 12.5956 81.554 13.307 82.0982 13.8568L82.1819 13.7742L82.2656 13.6916C81.7664 13.1845 81.5169 12.5466 81.5159 11.7509C81.5169 10.9552 81.7664 10.3173 82.2655 9.81016C82.7692 9.30315 83.3708 9.05442 84.0998 9.05305C84.8283 9.05442 85.4313 9.30315 85.9337 9.81016C86.4337 10.3173 86.6833 10.9552 86.6842 11.7509C86.6833 12.5465 86.4337 13.1845 85.9337 13.6916C85.4313 14.1986 84.8283 14.4473 84.0998 14.4487C83.3708 14.4473 82.7692 14.1986 82.2655 13.6916L82.1819 13.7742ZM86.6883 14.3643L86.6042 14.2826C85.9296 14.9728 85.1045 15.3138 84.0998 15.3151C83.0947 15.3137 82.2696 14.9728 81.5963 14.2826L81.5931 14.279L81.5963 14.2826C80.923 13.5901 80.5908 12.755 80.5898 11.7509C80.5908 10.7468 80.923 9.91163 81.5963 9.21915C82.2696 8.52893 83.0946 8.18755 84.0998 8.18617C85.0981 8.18755 85.9212 8.53036 86.5996 9.22416C87.2752 9.91987 87.6094 10.7537 87.6108 11.7509C87.6094 12.755 87.2762 13.5901 86.6042 14.2826L86.6883 14.3643L86.773 14.4459C87.4862 13.7145 87.8469 12.8072 87.8462 11.7509C87.847 10.7005 87.4848 9.79511 86.7683 9.06044C86.0513 8.32287 85.1533 7.94991 84.0998 7.95118C83.0409 7.94991 82.1401 8.32112 81.4277 9.05585V9.05532C80.713 9.78724 80.3535 10.6945 80.3545 11.7509C80.3535 12.8072 80.713 13.7145 81.4277 14.4464L81.4308 14.4497L81.4277 14.4459C82.1401 15.1806 83.0409 15.551 84.0998 15.5501C85.1583 15.551 86.0591 15.1806 86.773 14.4459L86.6883 14.3643ZM89.0015 15.2752V8.22651H90.1056L93.5365 13.7099H93.5756L93.5365 12.3515V8.22651H94.4443V15.2751H93.4974L89.9079 9.52606H89.8688L89.9079 10.8849V15.2751H89.0016" fill="#242424"/>
<path d="M89.0014 15.2755H89.1191V8.34432H90.0401L93.4711 13.8277H93.6963L93.654 12.3501V8.34437H94.3265V15.158H93.5626L89.9731 9.40892H89.7479L89.7901 10.8871V15.158H89.0014L89.0014 15.2755L89.0014 15.3929H90.0254V10.8834L89.9864 9.52323L89.8687 9.52639V9.64387H89.9078V9.52639L89.808 9.58885L93.4321 15.3929H94.5618V8.10938H93.4188V12.3532L93.4578 13.7134L93.5755 13.7102V13.5927H93.5364V13.7102L93.6362 13.6478L90.1706 8.10938H88.8838V15.3929H89.0014L89.0014 15.2755ZM125.9 35.2466H128.096V20.5605H125.9L125.9 35.2466ZM145.675 25.8508L143.159 32.2179H143.083L140.471 25.8508H138.106L142.023 34.75L139.79 39.7002H142.081L148.117 25.8508L145.675 25.8508ZM133.225 33.5786C132.505 33.5786 131.502 33.2196 131.502 32.3313C131.502 31.1977 132.752 30.7632 133.829 30.7632C134.795 30.7632 135.248 30.971 135.836 31.2547C135.665 32.6148 134.492 33.5786 133.225 33.5786ZM133.489 25.5295C131.9 25.5295 130.254 26.2288 129.573 27.7781L131.521 28.5903C131.937 27.7781 132.713 27.5133 133.527 27.5133C134.662 27.5133 135.817 28.1938 135.836 29.403V29.554C135.438 29.3273 134.587 28.9873 133.546 28.9873C131.446 28.9873 129.307 30.1395 129.307 32.2936C129.307 34.2586 131.029 35.5247 132.959 35.5247C134.435 35.5247 135.248 34.8634 135.76 34.0888H135.836V35.2223H137.955V29.5916C137.955 26.9847 136.006 25.5295 133.489 25.5295ZM119.921 27.6385H116.798V22.6045H119.921C121.562 22.6045 122.494 23.9614 122.494 25.1215C122.494 26.2596 121.562 27.6385 119.921 27.6385ZM119.864 20.5605H114.604V35.2466H116.798V29.6825H119.864C122.298 29.6825 124.69 27.9235 124.69 25.1215C124.69 22.3195 122.298 20.5605 119.864 20.5605ZM91.1777 33.5812C89.6609 33.5812 88.391 32.3133 88.391 30.5718C88.391 28.812 89.6609 27.5248 91.1777 27.5248C92.6751 27.5248 93.8503 28.812 93.8503 30.5718C93.8503 32.3133 92.6751 33.5812 91.1777 33.5812ZM93.6986 26.6731H93.6228C93.1301 26.0865 92.1819 25.5566 90.9879 25.5566C88.4857 25.5566 86.1923 27.7519 86.1923 30.5718C86.1923 33.373 88.4857 35.5495 90.9879 35.5495C92.1819 35.5495 93.1301 35.0194 93.6228 34.4141H93.6986V35.1332C93.6986 37.045 92.6751 38.067 91.026 38.067C89.6802 38.067 88.8461 37.1014 88.5045 36.2878L86.5904 37.0826C87.1401 38.4074 88.5997 40.0352 91.026 40.0352C93.6039 40.0352 95.7839 38.5208 95.7839 34.8304V25.8595H93.6986V26.6731ZM97.3001 35.2466H99.499V20.56H97.3001V35.2466ZM102.74 30.4016C102.684 28.471 104.238 27.4871 105.356 27.4871C106.229 27.4871 106.968 27.9221 107.214 28.5473L102.74 30.4016ZM109.564 28.7362C109.148 27.6192 107.877 25.5566 105.28 25.5566C102.702 25.5566 100.561 27.5817 100.561 30.553C100.561 33.3542 102.684 35.5495 105.527 35.5495C107.821 35.5495 109.148 34.1489 109.697 33.3352L107.991 32.1994C107.423 33.0324 106.645 33.5812 105.527 33.5812C104.408 33.5812 103.612 33.0701 103.1 32.0673L109.792 29.3039L109.564 28.7362ZM56.2548 27.0897V29.2093H61.3347C61.1831 30.4016 60.785 31.2721 60.1783 31.8778C59.4393 32.6162 58.283 33.4298 56.2547 33.4298C53.127 33.4298 50.6819 30.9127 50.6819 27.7899C50.6819 24.6672 53.127 22.1498 56.2548 22.1498C57.9419 22.1498 59.1736 22.8123 60.0836 23.664L61.5811 22.169C60.3112 20.9575 58.624 20.0302 56.2548 20.0302C51.9706 20.0302 48.3691 23.5126 48.3691 27.7899C48.3691 32.0673 51.9706 35.5495 56.2548 35.5495C58.5675 35.5495 60.3112 34.7928 61.6758 33.373C63.0786 31.9724 63.5147 30.0042 63.5147 28.4146C63.5147 27.9221 63.477 27.4683 63.4007 27.0897H56.2548ZM69.2902 33.5812C67.7734 33.5812 66.4654 32.3321 66.4654 30.553C66.4654 28.755 67.7734 27.5248 69.2902 27.5248C70.8064 27.5248 72.1144 28.755 72.1144 30.553C72.1144 32.3321 70.8064 33.5812 69.2902 33.5812ZM69.2902 25.5566C66.5223 25.5566 64.2666 27.6573 64.2666 30.553C64.2666 33.4298 66.5223 35.5495 69.2902 35.5495C72.0574 35.5495 74.3132 33.4298 74.3132 30.553C74.3132 27.6573 72.0574 25.5566 69.2902 25.5566ZM80.2481 33.5812C78.732 33.5812 77.4238 32.3321 77.4238 30.553C77.4238 28.755 78.7319 27.5248 80.2481 27.5248C81.7644 27.5248 83.0724 28.755 83.0724 30.553C83.0724 32.3321 81.7643 33.5812 80.2481 33.5812ZM80.2481 25.5566C77.4804 25.5566 75.2251 27.6573 75.2251 30.553C75.2251 33.4298 77.4804 35.5495 80.2481 35.5495C83.0155 35.5495 85.2713 33.4298 85.2713 30.553C85.2713 27.6573 83.0154 25.5566 80.2481 25.5566Z" fill="#242424"/>
<path d="M13.4854 38.6074C13.0782 38.6074 12.7224 38.4748 12.4452 38.2252L12.4448 38.2256C12.4436 38.2245 12.4424 38.2234 12.4411 38.2224L12.3653 38.1485C12.3629 38.1462 12.3607 38.1435 12.3579 38.1408L12.4453 38.0535C12.7224 38.3032 13.0777 38.4358 13.485 38.4353C13.8829 38.4353 14.3306 38.3087 14.8031 38.0412L31.8817 28.3525L31.9911 28.4618L31.8803 28.5246L14.803 38.2128C14.3724 38.4565 13.9628 38.5836 13.5929 38.6047C13.5571 38.6065 13.5212 38.6074 13.4854 38.6074" fill="url(#paint0_linear_1001_6593)"/>
<path d="M12.3578 38.1426C12.0154 37.7809 11.8132 37.2197 11.8132 36.4919V36.3208C11.8132 37.048 12.0154 37.6097 12.3578 37.9714L12.4452 38.0549L12.3578 38.1426Z" fill="url(#paint1_linear_1001_6593)"/>
<path d="M31.991 28.4628L31.8816 28.3535L37.748 25.0252C38.493 24.6027 38.9113 24.0575 38.9812 23.5021C38.9812 23.7059 38.9357 23.9097 38.8452 24.108C38.6627 24.5077 38.2969 24.8853 37.748 25.1969L31.991 28.4629" fill="url(#paint2_linear_1001_6593)"/>
<path d="M38.9812 23.5C38.9113 22.9434 38.493 22.3987 37.748 21.976L31.8811 18.6481L31.9905 18.5388H31.991L37.748 21.8048C38.5694 22.271 38.9807 22.8854 38.9812 23.5Z" fill="url(#paint3_linear_1001_6593)"/>
<path d="M11.8132 10.6816V10.5021C11.8132 10.4374 11.815 10.3741 11.8183 10.3126V10.3098C11.8183 10.309 11.8183 10.3081 11.8186 10.3072V10.3002C11.8541 9.6738 12.0489 9.18516 12.3578 8.85888L12.4438 8.94509C12.0489 9.30084 11.8132 9.89412 11.8132 10.6816Z" fill="url(#paint4_linear_1001_6593)"/>
<path d="M11.625 36.604V10.3957C11.625 9.48612 12.1492 8.68445 12.92 8.31445L28.1054 23.4999L12.92 38.6853C12.1492 38.2999 11.625 37.5136 11.625 36.604ZM32.9154 28.3099L16.3271 37.899L29.4158 24.8103L32.9154 28.3099ZM38.08 21.6653C38.6042 22.0815 38.9896 22.729 38.9896 23.4999C38.9896 24.2707 38.6504 24.8874 38.1108 25.319L34.5804 27.354L30.7262 23.4999L34.5804 19.6457L38.08 21.6653ZM16.3271 9.1007L32.9154 18.6899L29.4158 22.1895L16.3271 9.1007Z" fill="black"/>
</g>
<defs>
<linearGradient id="paint0_linear_1001_6593" x1="29.2909" y1="31.48" x2="12.296" y2="48.5564" gradientUnits="userSpaceOnUse">
<stop stop-color="#CC2E36"/>
<stop offset="1" stop-color="#9C0E4E"/>
</linearGradient>
<linearGradient id="paint1_linear_1001_6593" x1="13.7552" y1="10.2365" x2="2.72269" y2="21.3221" gradientUnits="userSpaceOnUse">
<stop stop-color="#008DE0"/>
<stop offset="0.00657" stop-color="#008DE0"/>
<stop offset="0.2601" stop-color="#00A7E0"/>
<stop offset="0.5122" stop-color="#00B8E0"/>
<stop offset="0.7604" stop-color="#00C4E0"/>
<stop offset="1" stop-color="#00C7E0"/>
</linearGradient>
<linearGradient id="paint2_linear_1001_6593" x1="39.889" y1="23.5011" x2="11.4187" y2="23.5011" gradientUnits="userSpaceOnUse">
<stop stop-color="#E0C500"/>
<stop offset="0.4087" stop-color="#E0A600"/>
<stop offset="0.7754" stop-color="#E09100"/>
<stop offset="1" stop-color="#E08900"/>
</linearGradient>
<linearGradient id="paint3_linear_1001_6593" x1="39.889" y1="23.5012" x2="11.4188" y2="23.5012" gradientUnits="userSpaceOnUse">
<stop stop-color="#FFE840"/>
<stop offset="0.4087" stop-color="#FFCE40"/>
<stop offset="0.7754" stop-color="#FFBC40"/>
<stop offset="1" stop-color="#FFB540"/>
</linearGradient>
<linearGradient id="paint4_linear_1001_6593" x1="13.7432" y1="10.2554" x2="3.11545" y2="20.4715" gradientUnits="userSpaceOnUse">
<stop stop-color="#40B8FF"/>
<stop offset="0.00657" stop-color="#40B9FF"/>
<stop offset="0.2601" stop-color="#40CEFF"/>
<stop offset="0.5122" stop-color="#40DDFF"/>
<stop offset="0.7604" stop-color="#40E7FF"/>
<stop offset="1" stop-color="#40EAFF"/>
</linearGradient>
<clipPath id="clip0_1001_6593">
<rect width="159" height="47" fill="white"/>
</clipPath>
</defs>
</svg>
