<svg width="523" height="354" viewBox="0 0 523 354" fill="none" xmlns="http://www.w3.org/2000/svg">
<path d="M24.2534 297.399C23.5614 299.677 22.7377 302.166 21.7538 304.955C17.8408 302.981 15.9401 301.305 15.0393 297.298L24.2534 297.399ZM24.2534 297.399C32.7769 269.334 22.7514 271.777 44.2962 141.251C47.1739 134.072 60.1236 135.984 63.0013 130.718C64.4404 128.085 79.4657 25.0878 74.9919 23.974C68.5928 22.8183 59.6441 109.18 53.4089 107.742C47.1736 106.303 66.8382 22.3907 61.5625 21.5807C56.2868 20.7706 43.337 102.957 38.061 104.87C29.8138 103.753 51.0821 20.9964 47.1738 19.666C42.5719 18.0994 19.2248 117.32 18.8762 121.147C17.4374 128.327 32.9159 132.156 31.826 139.336C22.8938 198.182 16.7493 231.846 2.0893 288.201C-1.00827 303.895 2.89753 323.994 8.80401 325.059C13.6011 325.059 17.4381 317.881 20.3149 310.22M24.2534 297.399L130.364 298.557C162.098 330.586 206.152 350.431 254.85 350.431C351.535 350.431 429.913 272.208 429.913 175.716C429.913 79.2228 351.535 1 254.85 1C158.166 1 79.7883 79.2228 79.7883 175.716C79.7883 210.744 90.1173 243.366 107.901 270.711C124.873 289.64 177.152 295.384 195.262 293.182C152.357 271.461 122.954 227.015 122.954 175.716C122.954 103.016 182.006 44.0805 254.85 44.0805C327.695 44.0805 386.747 103.016 386.747 175.716C386.747 209.123 373.72 240.102 353.173 263.313C333.964 246.049 320.226 235.295 307.126 220.233C300.415 209.7 305.211 204.435 301.851 179.067C301.345 175.582 299.618 172.225 298.016 169.014C297.373 169.335 297.766 171.097 298.131 172.843C299.834 180.981 298.749 190.445 296.805 198.455C296.358 200.298 295.749 201.835 294.659 201.563C303.292 154.654 232.693 136.942 224.634 145.558C216.576 154.175 241.901 202.999 241.901 202.999C229.43 192.947 208.327 151.781 219.358 139.814C231.271 126.891 274.877 148.617 288.424 158.707C290.501 160.254 292.023 161.235 292.741 160.877C271.977 136.204 223.339 122.71 213.602 133.594C201.612 146.996 222.236 203.479 254.368 220.233C270.196 226.934 287.847 217.276 301.851 227.891L343.889 272.886C320.461 294.158 289.019 307.35 254.85 307.35C238.474 307.35 222.795 304.372 208.327 298.928C211.834 311.63 285.067 332.241 350.775 280.535C369.105 301.102 373.017 307.304 400.653 337.986C405.931 345.166 427.035 356.654 431.349 351.868C435.662 347.082 429.433 330.327 418.878 319.797C400.54 304.248 380.254 286.919 361.957 270.971C423.677 260.441 463.966 319.797 514.806 292.99C518.552 290.028 518.74 287.094 516.245 280.535L487.947 180.024L458.69 21.5829C440.464 45.5166 447.583 125.532 458.69 165.185C461.088 175.716 477.875 172.843 480.273 187.682C486.508 233.156 480.273 257.09 488.426 306.393C488.906 313.095 498.978 324.104 509.05 323.147C516.245 321.711 522 303.521 522 300.17" stroke="#BDBDBD" stroke-opacity="0.4" stroke-width="2"/>
</svg>
